<svg xmlns="http://www.w3.org/2000/svg" viewBox="0 0 40 40"><defs><style>.cls-1{fill:#fff;}</style></defs><title>slider-arrow</title><g id="Layer_2" data-name="Layer 2"><g id="Layer_1-2" data-name="Layer 1"><path id="slider-arrow" class="cls-1" d="M20,40A20,20,0,1,0,0,20,20,20,0,0,0,20,40ZM20,2A18,18,0,1,1,2,20,18,18,0,0,1,20,2ZM11.31,21h15l-3.91,3.91a1,1,0,0,0,0,1.42,1,1,0,0,0,.71.29,1,1,0,0,0,.71-.29l5.62-5.62a1,1,0,0,0,0-1.42l-5.62-5.62a1,1,0,0,0-1.41,0h0a1,1,0,0,0,0,1.39l0,0L26.28,19h-15a1,1,0,0,0-.09,2Z"/></g></g></svg>