<svg width="46" height="46" viewBox="0 0 46 46" fill="none" xmlns="http://www.w3.org/2000/svg">
<path d="M15.3329 23.0001C15.332 23.448 15.488 23.882 15.7737 24.2268L25.3571 35.7268C25.6824 36.1182 26.1499 36.3644 26.6567 36.4111C27.1635 36.4578 27.6681 36.3013 28.0596 35.976C28.451 35.6506 28.6971 35.1831 28.7438 34.6763C28.7906 34.1695 28.6341 33.6649 28.3087 33.2735L19.7221 23.0001L28.0021 12.7268C28.1613 12.5307 28.2802 12.3052 28.3519 12.063C28.4236 11.8209 28.4468 11.5669 28.4201 11.3158C28.3934 11.0646 28.3173 10.8213 28.1962 10.5996C28.0751 10.378 27.9114 10.1825 27.7146 10.0243C27.5175 9.84876 27.2863 9.71582 27.0354 9.6338C26.7846 9.55178 26.5195 9.52245 26.2568 9.54764C25.9941 9.57283 25.7394 9.652 25.5088 9.7802C25.2781 9.90839 25.0763 10.0828 24.9162 10.2926L15.6587 21.7926C15.4182 22.1474 15.3034 22.5725 15.3329 23.0001Z" fill="#1B1E64"/>
</svg>
