<svg width="65" height="43" viewBox="0 0 65 43" fill="none" xmlns="http://www.w3.org/2000/svg"><path transform="translate(0 .5)" fill="#006AA7" d="M0 0H65V42H0z"/><path d="M27.9861 42.5H57.7778C61.7663 42.5 65 39.6068 65 35.2308V25.5385H27.9861V42.5ZM57.7778 0.5H27.9861V17.4615H65V6.96154C65 5.24783 64.2391 3.60431 62.8847 2.39254C61.5302 1.18077 59.6932 0.5 57.7778 0.5ZM18.9583 0.5H7.22222C5.30771 0.5 3.47153 1.1801 2.11725 2.39083C0.76298 3.60155 0.00143589 5.24382 0 6.95669L0 17.4615H18.9583V0.5ZM0 25.5385V35.2372C0.00361111 39.6101 3.23556 42.5 7.22222 42.5H18.9583V25.5385H0Z" fill="#006AA7"/><path d="M27.9861 0.5H18.9583V17.4615H0V25.5385H18.9583V42.5H27.9861V25.5385H65V17.4615H27.9861V0.5Z" fill="#FECC00"/></svg>