<svg width="189" height="67" viewBox="0 0 189 67" fill="none" xmlns="http://www.w3.org/2000/svg"><path d="M76.4147 1.8304V64.2606H2.64231V1.8304H76.4147ZM78.2425 0H0.814453V66.091H78.2425V0Z" fill="#fff"/><path d="M56.2304 16.8579C54.4025 16.8579 52.8809 18.3771 52.8809 20.6697V20.7246C52.8809 23.0126 54.4025 24.5364 56.2304 24.5364C58.0583 24.5364 59.5982 23.0401 59.5982 20.7246V20.6697C59.5982 18.3771 58.0583 16.8579 56.2304 16.8579Z" fill="#fff"/><path d="M38.8574 16.8579C37.0295 16.8579 35.5078 18.3771 35.5078 20.6697V20.7246C35.5078 23.0126 37.0295 24.5364 38.8574 24.5364C40.6852 24.5364 42.2343 23.0401 42.2343 20.7246V20.6697C42.2343 18.3771 40.6852 16.8579 38.8574 16.8579Z" fill="#fff"/><path d="M19.3848 23.4288V23.4975C19.3848 24.5545 20.2576 25.1768 21.5188 25.1768C23.3466 25.1768 24.585 24.1701 24.585 22.7516V22.056C23.798 21.7076 22.9459 21.5313 22.0854 21.5389C20.3992 21.5206 19.3848 22.1933 19.3848 23.4288Z" fill="#fff"/><path d="M0.814453 0V38.7358H22.0222C22.5294 38.7358 23.0321 38.7358 23.5347 38.7952C30.2475 39.2528 36.2064 42.9137 39.0395 48.3682L39.5285 49.3109L40.0174 48.3682C42.8506 42.9091 48.8049 39.2712 55.5222 38.7952C56.0203 38.7586 56.5276 38.7358 57.0348 38.7358H78.2425V0H0.814453ZM28.278 27.6161H24.4944V26.1198C23.9707 26.7015 23.3253 27.1603 22.604 27.4633C21.8828 27.7663 21.1037 27.9059 20.3223 27.8724C17.7221 27.8724 15.5881 26.376 15.5881 23.6441V23.5938C15.5881 20.5782 17.8729 19.1871 21.1448 19.1871C22.2936 19.1749 23.4355 19.367 24.5172 19.7546V19.5212C24.5172 17.8967 23.5165 16.9952 21.5561 16.9952C20.2512 16.9973 18.9589 17.2505 17.7496 17.7411L16.7717 14.753C18.4487 13.9775 20.2805 13.5957 22.1273 13.6365C26.3999 13.6365 28.278 15.8512 28.278 19.5852V27.6161ZM46.1408 20.7521C46.1408 25.3647 43.1294 27.8907 39.8575 27.8907C39.0301 27.908 38.2102 27.7302 37.464 27.3717C36.7178 27.0132 36.0663 26.484 35.562 25.8269V27.6161H31.6458V8.79048H35.562V15.7734C36.0333 15.0694 36.6735 14.4952 37.424 14.1034C38.1745 13.7116 39.0113 13.5149 39.8575 13.5312C43.0563 13.5312 46.1408 16.0572 46.1408 20.6698V20.7521ZM63.5054 20.7521C63.5054 25.3647 60.494 27.8907 57.2222 27.8907C56.3947 27.908 55.5748 27.7302 54.8286 27.3717C54.0825 27.0132 53.431 26.484 52.9267 25.8269V31.7757H49.0105V13.7875H52.9267V15.7734C53.3979 15.0694 54.0382 14.4952 54.7887 14.1034C55.5392 13.7116 56.3759 13.5149 57.2222 13.5312C60.4209 13.5312 63.5054 16.0572 63.5054 20.6698V20.7521Z" fill="#fff"/><path d="M94.0353 11.9434C94.0353 12.8586 94.1906 13.7738 95.4062 13.7738C95.9845 13.7525 96.5549 13.6318 97.0924 13.4169V14.2635C96.1516 14.8406 95.0743 15.1564 93.9713 15.1787C92.6324 15.1787 91.8464 14.3321 91.8464 12.5795V7.02426H90.375V6.05872C91.0042 5.97072 91.6009 5.72432 92.1092 5.34259C92.6175 4.96085 93.0207 4.45625 93.2813 3.87598H94.0307V6.05872H96.9781V7.02426H94.0307L94.0353 11.9434Z" fill="#fff"/><path d="M97.5273 2.83311V2.37551L100.671 1.25439H101.238V7.3725C102.22 6.32917 103.185 5.85784 104.345 5.85784C106.292 5.85784 107.329 7.09793 107.329 8.94663V12.6074C107.329 13.7102 107.686 14.2639 108.805 14.2639V14.9686H103.838V14.2639C104.802 14.2228 105.136 13.7102 105.136 12.7081V9.31271C105.136 8.09092 104.725 7.14827 103.349 7.14827C102.581 7.14827 101.978 7.44113 101.224 8.2099V12.5159C101.224 13.5958 101.521 14.1861 102.622 14.209V14.9137H97.5273V14.209C98.7429 14.2456 99.0582 13.6965 99.0582 12.5342V3.51951L97.5273 2.83311Z" fill="#fff"/><path d="M114.584 5.8443C117.28 5.8443 119.186 7.73418 119.186 10.37C119.186 12.7495 117.614 15.1702 114.507 15.1702C111.66 15.1702 109.85 13.2803 109.85 10.4889C109.84 9.86813 109.957 9.25185 110.193 8.6776C110.428 8.10334 110.778 7.58313 111.221 7.14863C111.664 6.71412 112.191 6.37441 112.769 6.15018C113.347 5.92594 113.965 5.82187 114.584 5.8443ZM114.644 14.4609C116.06 14.4609 116.769 13.2208 116.769 10.6857C116.769 8.02704 115.905 6.5673 114.429 6.5673C112.953 6.5673 112.268 7.80282 112.268 10.1869C112.268 12.8273 113.172 14.4609 114.644 14.4609Z" fill="#fff"/><path d="M129.971 12.5156C129.971 13.5589 130.208 14.0715 131.506 13.9937V14.6984C130.436 14.7478 129.374 14.9135 128.339 15.1926H127.791V13.6596C126.712 14.7579 125.767 15.1926 124.469 15.1926C122.664 15.1926 121.7 14.1081 121.7 12.1404V8.38349C121.7 7.41796 121.325 6.80935 120.365 6.80935V6.10008C121.36 6.14824 122.356 6.06982 123.331 5.8667H123.879V11.907C123.879 13.3805 124.665 14.0531 125.648 14.0531C126.434 14.0531 127.16 13.6184 127.791 12.7902V8.48417C127.791 7.44084 127.457 6.74986 126.278 6.80935V6.10008C127.325 6.12697 128.372 6.04878 129.404 5.8667H129.971V12.5156Z" fill="#fff"/><path d="M132.941 12.1993H133.704C134.334 13.6911 135.276 14.4599 136.446 14.4599C137.314 14.4599 137.981 13.929 137.981 13.2426C137.987 13.1019 137.962 12.9616 137.908 12.8318C137.853 12.7019 137.771 12.5859 137.666 12.4922C136.939 11.7646 134.421 11.2338 133.521 10.3277C133.06 9.84748 132.805 9.20488 132.813 8.53852C132.813 6.86371 134.028 5.84326 136.011 5.84326C136.965 5.84521 137.911 6.01881 138.803 6.35577L139.096 8.61631H138.41C137.666 7.16115 136.88 6.55254 135.797 6.55254C134.992 6.55254 134.499 6.96438 134.499 7.63248C134.486 7.79186 134.512 7.95196 134.574 8.09929C134.636 8.24662 134.732 8.37686 134.855 8.47903C135.504 9.12882 137.899 9.55897 138.904 10.5657C139.16 10.7847 139.363 11.0602 139.495 11.3706C139.628 11.681 139.686 12.0179 139.667 12.3549C139.667 14.0846 138.333 15.1691 136.208 15.1691C135.155 15.1657 134.116 14.9297 133.165 14.4782L132.941 12.1993Z" fill="#fff"/><path d="M151.269 13.8875C150.506 14.7158 149.757 15.1688 148.875 15.1688C148.107 15.1688 147.673 14.8348 147.422 14.0065C146.023 14.8165 144.981 15.1688 143.999 15.1688C142.509 15.1688 141.504 14.304 141.504 13.0227C141.504 11.508 142.962 10.7347 145.571 10.094L147.339 9.65933V8.12637C147.339 7.21118 146.85 6.55223 145.594 6.55223C144.63 6.55223 143.962 7.04186 143.962 7.81063C143.973 8.09755 144.047 8.37862 144.177 8.63431L142.093 9.36189C141.897 8.97931 141.79 8.55661 141.783 8.12637C141.783 6.92289 143.058 5.83838 146.005 5.83838C148.185 5.83838 149.524 6.36919 149.524 8.17671V12.4507C149.524 13.1371 149.72 13.4894 150.15 13.4894C150.485 13.4612 150.803 13.332 151.064 13.1188L151.269 13.8875ZM147.339 10.2268C145.278 10.9315 143.825 11.4852 143.825 12.6658C143.841 13.0212 143.992 13.3572 144.247 13.6054C144.501 13.8535 144.841 13.9953 145.196 14.0019C145.975 13.9487 146.721 13.6617 147.335 13.1783L147.339 10.2268Z" fill="#fff"/><path d="M155.496 7.4174C156.575 6.27341 157.443 5.84326 158.617 5.84326C160.605 5.84326 161.588 7.21606 161.588 8.85426V12.5517C161.588 13.7918 161.94 14.2448 163.1 14.2265V14.9312H158.11V14.2265C159.129 14.1441 159.408 13.6133 159.408 12.3961V9.31186C159.408 7.8567 158.818 7.14742 157.658 7.14742C157.242 7.16717 156.836 7.2734 156.463 7.45934C156.091 7.64528 155.762 7.90685 155.496 8.22735V12.5791C155.496 13.778 155.889 14.1716 156.908 14.2127V14.9174H151.781V14.2127C153.061 14.2127 153.317 13.6224 153.317 12.3823V7.93907L151.781 7.24809V6.79049L154.847 5.84784H155.496V7.4174Z" fill="#fff"/><path d="M173.382 11.7054C173.382 13.5358 173.537 13.8333 174.579 13.8333C174.744 13.8279 174.909 13.8141 175.072 13.7921V14.4419L171.202 15.1694V13.4306C170.041 14.634 168.963 15.1832 167.702 15.1832C165.641 15.1832 164.188 13.4306 164.188 10.9321C164.188 8.05835 165.897 5.8573 168.999 5.8573C169.741 5.90261 170.477 6.0082 171.202 6.17304V3.5327L169.612 2.8463V2.3887L172.751 1.26758H173.382V11.7054ZM171.216 8.85457C171.216 7.33992 170.251 6.56658 169.013 6.56658C167.441 6.56658 166.518 7.86158 166.518 10.1267C166.518 12.3918 167.432 13.728 168.976 13.728C169.421 13.7212 169.856 13.6065 170.247 13.3936C170.637 13.1808 170.969 12.8763 171.216 12.5062V8.85457Z" fill="#fff"/><path d="M176.123 12.1993H176.891C177.517 13.6911 178.459 14.4599 179.633 14.4599C180.501 14.4599 181.168 13.929 181.168 13.2426C181.177 13.1017 181.153 12.9606 181.099 12.8304C181.044 12.7002 180.96 12.5844 180.853 12.4922C180.126 11.7646 177.613 11.2338 176.708 10.3277C176.249 9.84641 175.995 9.20452 176 8.53852C176 6.86371 177.22 5.84326 179.199 5.84326C180.151 5.84526 181.095 6.01887 181.986 6.35577L182.283 8.61631H181.607C180.862 7.16115 180.076 6.55254 178.993 6.55254C178.189 6.55254 177.695 6.96438 177.695 7.63248C177.683 7.79186 177.708 7.95196 177.771 8.09929C177.833 8.24662 177.929 8.37686 178.052 8.47903C178.701 9.12882 181.095 9.55897 182.101 10.5657C182.357 10.7847 182.559 11.0602 182.692 11.3706C182.824 11.681 182.883 12.0179 182.864 12.3549C182.864 14.0846 181.529 15.1691 179.409 15.1691C178.355 15.1662 177.314 14.9302 176.361 14.4782L176.123 12.1993Z" fill="#fff"/><path d="M95.5479 29.1804C98.2394 29.1804 100.145 31.0703 100.145 33.7061C100.145 36.0856 98.573 38.5063 95.4702 38.5063C92.6187 38.5063 90.8092 36.6164 90.8092 33.825C90.7994 33.2038 90.9161 32.5872 91.1521 32.0126C91.3881 31.438 91.7385 30.9176 92.1818 30.483C92.6252 30.0484 93.1523 29.7088 93.731 29.4849C94.3097 29.2609 94.9279 29.1573 95.5479 29.1804ZM95.6073 37.797C97.0193 37.797 97.7276 36.5569 97.7276 34.0218C97.7276 31.3631 96.8639 29.9034 95.3879 29.9034C93.9119 29.9034 93.2265 31.1389 93.2265 33.523C93.2265 36.1634 94.1313 37.797 95.6073 37.797Z" fill="#fff"/><path d="M105.116 35.7515C105.116 37.2662 105.683 37.5819 107.277 37.5819V38.2866H101.264V37.5819C102.502 37.5819 102.932 37.3028 102.932 35.7515V30.361H101.264V29.3954C101.693 29.4616 102.132 29.3724 102.502 29.1438C102.959 28.6862 102.959 26.9381 104.193 25.7164C104.584 25.3219 105.054 25.0147 105.572 24.8152C106.091 24.6157 106.645 24.5282 107.2 24.5586C108.826 24.5586 109.832 25.1672 109.832 26.1511C109.829 26.2933 109.799 26.4336 109.742 26.5641C109.686 26.6945 109.604 26.8124 109.501 26.911C109.399 27.0097 109.278 27.0871 109.146 27.1389C109.014 27.1906 108.872 27.2157 108.73 27.2127C107.551 27.2127 107.647 25.4235 106.295 25.4235C105.349 25.4235 105.116 26.3661 105.116 27.469V29.3954H107.177V30.361H105.116V35.7515Z" fill="#fff"/><path d="M113.583 35.5362H114.351C114.977 37.028 115.923 37.7968 117.093 37.7968C117.956 37.7968 118.623 37.266 118.623 36.5796C118.632 36.4386 118.608 36.2975 118.554 36.1673C118.499 36.0371 118.415 35.9213 118.308 35.8291C117.582 35.1015 115.068 34.5707 114.163 33.6646C113.704 33.1833 113.45 32.5414 113.455 31.8754C113.455 30.2006 114.675 29.1802 116.654 29.1802C117.606 29.1822 118.55 29.3558 119.441 29.6927L119.738 31.9532H119.048C118.304 30.4981 117.518 29.8895 116.435 29.8895C115.63 29.8895 115.141 30.3013 115.141 30.9694C115.128 31.1284 115.153 31.2884 115.214 31.4358C115.275 31.5831 115.371 31.7135 115.493 31.8159C116.142 32.4657 118.541 32.8959 119.542 33.9026C119.8 34.1207 120.003 34.396 120.137 34.7065C120.27 35.017 120.329 35.3544 120.31 35.6918C120.31 37.4215 118.971 38.5061 116.85 38.5061C115.796 38.5027 114.755 38.2667 113.802 37.8151L113.583 35.5362Z" fill="#fff"/><path d="M125.254 35.2813C125.254 36.1965 125.414 37.1117 126.625 37.1117C127.205 37.0905 127.777 36.9697 128.316 36.7548V37.6014C127.373 38.1786 126.295 38.4945 125.19 38.5166C123.856 38.5166 123.07 37.67 123.07 35.9174V30.3621H121.594V29.3966C122.223 29.3081 122.82 29.0616 123.329 28.6799C123.838 28.2983 124.243 27.794 124.505 27.2139H125.249V29.3966H128.197V30.3621H125.249L125.254 35.2813Z" fill="#fff"/><path d="M134.138 29.1804C136.829 29.1804 138.735 31.0703 138.735 33.7061C138.735 36.0856 137.163 38.5063 134.06 38.5063C131.209 38.5063 129.399 36.6164 129.399 33.825C129.389 33.2038 129.506 32.5872 129.742 32.0126C129.978 31.438 130.328 30.9176 130.772 30.483C131.215 30.0484 131.742 29.7088 132.321 29.4849C132.9 29.2609 133.518 29.1573 134.138 29.1804ZM134.197 37.797C135.609 37.797 136.317 36.5569 136.317 34.0218C136.317 31.3631 135.454 29.9034 133.978 29.9034C132.502 29.9034 131.816 31.1389 131.816 33.523C131.798 36.1634 132.712 37.797 134.197 37.797Z" fill="#fff"/><path d="M143.548 31.7976H143.589C144.356 30.3608 145.375 29.1802 146.495 29.1802C147.322 29.1802 148.323 29.9261 148.323 30.553C148.323 30.7909 147.989 32.3834 147.258 32.3834C146.527 32.3834 145.983 31.1845 145.138 31.1845C144.507 31.1845 143.685 32.1683 143.685 33.3672V35.7513C143.685 37.266 144.078 37.6595 145.746 37.5817V38.2864H139.896V37.5817C141.171 37.6183 141.528 37.1241 141.528 35.9069V31.459L139.896 30.7497V30.2921L143.059 29.2122H143.548V31.7976Z" fill="#fff"/><path d="M153.001 35.852C153.001 37.0921 153.275 37.5634 154.491 37.5863V38.291H149.268V37.5863C150.309 37.5863 150.817 37.2888 150.817 35.9115V31.4453L149.268 30.7543V30.2967L152.466 29.2168H153.019L153.001 35.852ZM153.156 25.9175C153.156 26.2687 153.018 26.6058 152.772 26.8559C152.526 27.106 152.191 27.2489 151.84 27.2537C151.489 27.2444 151.155 27.1007 150.907 26.8521C150.659 26.6035 150.515 26.269 150.506 25.9175C150.511 25.5663 150.653 25.2311 150.903 24.9845C151.153 24.7378 151.49 24.5996 151.84 24.5996C152.185 24.5996 152.517 24.7353 152.763 24.9775C153.009 25.2197 153.15 25.5491 153.156 25.8946V25.9175Z" fill="#fff"/><path d="M157.559 32.9972C157.543 33.4706 157.623 33.9422 157.793 34.3842C157.962 34.8263 158.219 35.2298 158.547 35.571C158.875 35.9122 159.267 36.1842 159.702 36.3709C160.137 36.5576 160.604 36.6552 161.077 36.658C161.962 36.6606 162.817 36.3346 163.476 35.7428L163.965 36.1776C163.531 36.884 162.928 37.4703 162.209 37.8828C161.491 38.2953 160.681 38.5208 159.853 38.5388C157.376 38.5388 155.648 36.7084 155.648 34.0543C155.648 31.1577 157.399 29.2129 159.971 29.2129C162.114 29.2129 164.084 30.4896 164.139 33.0293L157.559 32.9972ZM161.648 32.288C161.607 30.8328 160.821 29.8901 159.642 29.8901C158.463 29.8901 157.696 30.8053 157.559 32.288H161.648Z" fill="#fff"/><path d="M165.774 35.5362H166.528C167.159 37.028 168.1 37.7968 169.27 37.7968C170.138 37.7968 170.805 37.266 170.805 36.5796C170.812 36.4389 170.787 36.2985 170.732 36.1687C170.678 36.0388 170.595 35.9228 170.49 35.8291C169.763 35.1015 167.245 34.5707 166.345 33.6646C165.884 33.1844 165.629 32.5418 165.637 31.8754C165.637 30.2006 166.852 29.1802 168.836 29.1802C169.789 29.1826 170.735 29.3562 171.628 29.6927L171.92 31.9532H171.235C170.49 30.4981 169.704 29.8895 168.621 29.8895C167.817 29.8895 167.323 30.3013 167.323 30.9694C167.309 31.1289 167.334 31.2894 167.397 31.4369C167.459 31.5844 167.556 31.7145 167.68 31.8159C168.328 32.4657 170.723 32.8959 171.724 33.9026C171.981 34.1207 172.185 34.396 172.318 34.7065C172.452 35.017 172.511 35.3544 172.491 35.6918C172.491 37.4215 171.157 38.5061 169.032 38.5061C167.979 38.503 166.94 38.2671 165.989 37.8151L165.774 35.5362Z" fill="#fff"/><path d="M174.85 40.9097C174.85 40.7907 174.891 40.7679 175.028 40.7679C175.531 40.7371 176.002 40.5099 176.339 40.1351C176.677 39.7603 176.854 39.2678 176.833 38.7636C176.833 38.2099 176.6 38.0131 176.07 38.0131C175.202 38.0131 174.754 37.5555 174.754 36.7776C174.735 36.6057 174.752 36.4317 174.804 36.2669C174.856 36.102 174.942 35.95 175.057 35.8206C175.171 35.6912 175.312 35.5873 175.469 35.5157C175.626 35.444 175.797 35.4063 175.969 35.4048C177.052 35.4048 177.875 36.5259 177.875 37.9994C177.875 40.5802 175.933 41.4451 175.106 41.4451C174.95 41.4451 174.85 41.3856 174.85 41.3078V40.9097Z" fill="#fff"/><path d="M94.0133 57.1407L94.0544 57.1818C95.8823 54.212 97.5913 52.8118 99.3004 52.8118C100.42 52.8118 101.069 53.3426 101.069 54.2486C101.047 54.7691 100.934 55.2817 100.735 55.7633L99.2044 59.5019C98.9485 60.115 99.0856 60.5635 99.4375 60.5635C99.8944 60.5635 100.498 60.0144 101.11 59.0305H101.795C101.051 60.623 99.4192 61.8448 98.0803 61.8448C97.9251 61.8604 97.7685 61.842 97.6212 61.7908C97.4738 61.7397 97.3394 61.657 97.2272 61.5486C97.115 61.4401 97.0278 61.3085 96.9715 61.1629C96.9152 61.0173 96.8913 60.8612 96.9013 60.7053C96.9013 60.2706 97.0201 59.8771 97.4131 58.8521L98.784 55.4109C98.8968 55.1419 98.9632 54.8556 98.9805 54.5644C98.9811 54.4765 98.9643 54.3893 98.931 54.308C98.8976 54.2267 98.8485 54.1528 98.7865 54.0906C98.7244 54.0284 98.6506 53.9793 98.5694 53.9459C98.4882 53.9125 98.4011 53.8957 98.3133 53.8963C97.8015 53.8963 97.2897 54.1708 96.6226 54.8389C94.7736 56.7376 93.4179 59.0614 92.6744 61.6068H90.5312L93.9311 50.8258C94.0623 50.4567 94.1542 50.0748 94.2052 49.6864C94.2052 49.3889 94.027 49.3111 93.3599 49.3111H92.4459L92.6607 48.6019C93.9681 48.5699 95.2621 48.3305 96.4946 47.8926H96.8693L94.0133 57.1407Z" fill="#fff"/><path d="M107.022 60.4855C108.071 60.4307 109.06 59.9812 109.791 59.2271H110.779C109.499 60.8424 107.653 61.8445 105.962 61.8445C103.997 61.8445 102.645 60.5861 102.645 58.7923C102.645 55.9415 105.569 52.8115 108.635 52.8115C110.207 52.8115 111.171 53.5803 111.171 54.8204C111.171 57.566 106.908 58.3027 104.902 58.3622C104.742 59.6481 105.752 60.4855 107.022 60.4855ZM109.558 54.7014C109.561 54.5404 109.529 54.3806 109.465 54.233C109.4 54.0853 109.305 53.9531 109.186 53.8452C109.066 53.7373 108.925 53.6562 108.772 53.6074C108.619 53.5585 108.457 53.5431 108.297 53.562C106.355 53.562 105.057 56.001 104.879 57.6804C107.612 57.5568 109.558 56.2756 109.558 54.7014Z" fill="#fff"/><path d="M120.376 59.2454C120.079 60.2292 120.179 60.545 120.572 60.545C120.965 60.545 121.417 60.2109 121.906 59.4055H122.615C121.847 60.9797 120.787 61.8445 119.626 61.8445C118.625 61.8445 118.114 61.1764 118.114 59.8174H118.091C117.145 61.1536 116.025 61.8445 114.828 61.8445C113.256 61.8445 112.232 60.7829 112.232 59.1859C112.232 56.4403 114.887 52.8115 117.794 52.8115C118.332 52.7908 118.869 52.8795 119.373 53.0722C119.876 53.2649 120.335 53.5575 120.723 53.9327L121.18 53.0495H122.281L120.376 59.2454ZM115.806 60.4077C116.434 60.365 117.021 60.0756 117.437 59.6023C118.616 58.4217 119.366 56.001 119.366 54.9989C119.366 54.0837 118.854 53.5025 118.027 53.5025C116.121 53.5025 114.394 56.7057 114.394 58.8152C114.435 59.7991 114.961 60.4077 115.806 60.4077Z" fill="#fff"/><path d="M125.552 55.0943C125.707 54.4262 125.47 54.1791 125.177 54.1791C124.647 54.1791 123.998 54.7511 123.51 55.6755H122.879C123.683 53.9641 125.022 52.8018 126.16 52.8018C126.946 52.8018 127.357 53.2594 127.357 54.202C127.357 54.9662 126.928 56.5632 126.443 58.4714L126.48 58.508C127.851 55.4192 128.522 54.1425 129.222 53.4332C129.611 53.0499 130.129 52.8249 130.675 52.8018C131.502 52.8018 131.954 53.296 131.954 54.2203C131.954 55.0074 131.598 55.497 131.008 55.497C130.419 55.497 130.305 55.1264 130.305 54.4354C130.305 54.1013 130.186 54.0052 129.989 54.0052C129.788 54.0371 129.602 54.1334 129.459 54.2798C128.929 54.8106 126.864 58.5492 126.238 60.9287L126.037 61.5968H123.957L125.552 55.0943Z" fill="#fff"/><path d="M140.188 55.9003C139.932 54.8387 139.676 54.4268 139.274 54.4268C138.872 54.4268 138.607 54.7426 138.332 55.6075H137.702C138.291 53.7176 139.137 52.8115 140.297 52.8115C141.143 52.8115 141.595 53.3057 141.888 54.6053L143.322 60.7234C145.15 58.4354 145.562 57.4745 145.562 56.6691C145.562 55.7539 145.191 55.0583 145.191 54.1294C145.191 53.324 145.603 52.8115 146.27 52.8115C146.937 52.8115 147.449 53.4613 147.449 54.4085C147.449 55.7813 146.782 57.415 144.817 59.8997L143.588 61.4785C141.444 64.2241 139.502 65.2719 137.711 65.2719C136.614 65.2719 135.787 64.8144 135.787 64.192C135.792 63.969 135.882 63.7563 136.04 63.5986C136.197 63.4408 136.41 63.3501 136.632 63.3455C137.341 63.3455 137.693 64.0136 138.917 64.0136C139.763 64.0136 140.508 63.62 141.783 62.4577L140.188 55.9003Z" fill="#fff"/><path d="M153.903 52.8115C156.38 52.8115 157.974 54.2896 157.974 56.5501C157.934 57.9621 157.348 59.3033 156.34 60.2909C155.331 61.2786 153.979 61.8356 152.569 61.8445C150.151 61.8445 148.424 60.2887 148.424 58.1837C148.461 56.7508 149.053 55.3885 150.076 54.3856C151.099 53.3828 152.471 52.8182 153.903 52.8115ZM152.532 61.0986C154.712 61.0986 155.772 57.5339 155.772 55.8225C155.772 54.4085 155.086 53.562 153.944 53.562C151.783 53.562 150.604 57.1633 150.604 58.7374C150.604 60.1697 151.371 61.0986 152.55 61.0986H152.532Z" fill="#fff"/><path d="M168.05 59.5794C167.962 59.8152 167.903 60.0612 167.876 60.3116C167.877 60.396 167.91 60.4771 167.967 60.5389C168.025 60.6007 168.103 60.6388 168.187 60.6456C168.562 60.6456 169.252 60.1331 169.878 59.1493H170.568C169.485 61.1764 168.05 61.8445 166.912 61.8445C165.774 61.8445 165.756 61.1947 165.756 60.8195C165.786 60.3173 165.884 59.8215 166.048 59.346L166.597 57.6117L166.56 57.5751C164.221 61.3503 162.393 61.8445 161.607 61.8445C160.821 61.8445 159.957 61.451 159.957 60.3299C159.999 59.8198 160.105 59.3171 160.272 58.8335L161.351 55.4107C161.468 55.1575 161.534 54.884 161.547 54.6053C161.544 54.5444 161.529 54.4846 161.503 54.4296C161.477 54.3746 161.44 54.3254 161.394 54.2848C161.349 54.2443 161.296 54.2134 161.238 54.1937C161.18 54.1741 161.119 54.1663 161.058 54.1706C160.505 54.1706 160.094 54.7426 159.688 55.4107H158.961C160.259 53.0678 161.652 52.8115 162.279 52.8115C163.192 52.8115 163.736 53.4018 163.736 54.0333C163.698 54.5057 163.586 54.9691 163.403 55.4061L162.105 59.5565C162.023 59.7701 161.976 59.9959 161.968 60.2246C161.962 60.2922 161.971 60.3602 161.995 60.4238C162.018 60.4874 162.056 60.5449 162.104 60.5922C162.153 60.6395 162.211 60.6754 162.275 60.6973C162.34 60.7192 162.408 60.7266 162.475 60.7188C163.736 60.7188 165.445 58.257 165.674 57.9229C166.665 56.4049 167.458 54.7655 168.032 53.0449H170.079L168.05 59.5794Z" fill="#fff"/><path d="M173.474 55.0943C173.634 54.4262 173.396 54.1791 173.099 54.1791C172.569 54.1791 171.92 54.7511 171.431 55.6755H170.801C171.61 53.9641 172.944 52.8018 174.082 52.8018C174.868 52.8018 175.284 53.2594 175.284 54.202C175.284 54.9662 174.827 56.5632 174.37 58.4714L174.411 58.508C175.782 55.4192 176.453 54.1425 177.153 53.4332C177.544 53.0504 178.063 52.8255 178.61 52.8018C179.433 52.8018 179.885 53.296 179.885 54.2203C179.885 55.0074 179.533 55.497 178.944 55.497C178.354 55.497 178.236 55.1264 178.236 54.4354C178.236 54.1013 178.117 54.0052 177.92 54.0052C177.719 54.0389 177.534 54.135 177.39 54.2798C176.86 54.8106 174.799 58.5492 174.169 60.9287L173.972 61.5968H171.888L173.474 55.0943Z" fill="#fff"/><path d="M184.806 53.5616C184.038 53.5616 183.508 53.9917 183.508 54.6049C183.508 56.1973 187.497 57.0622 187.497 59.3639C187.497 60.9381 186.104 61.8441 183.686 61.8441C181.269 61.8441 179.779 61.0204 179.779 59.6476C179.767 59.5222 179.783 59.3956 179.824 59.2765C179.865 59.1574 179.931 59.0484 180.017 58.957C180.104 58.8655 180.209 58.7937 180.326 58.7462C180.442 58.6988 180.567 58.677 180.693 58.6821C182.206 58.6821 181.205 61.0845 183.837 61.0845C184.779 61.0845 185.391 60.6269 185.391 59.8627C185.391 58.2886 181.598 57.323 181.598 55.2364C181.598 53.8224 183.069 52.7974 185.153 52.7974C187.077 52.7974 188.553 53.6851 188.553 54.8428C188.55 54.965 188.522 55.0853 188.471 55.1966C188.42 55.3078 188.348 55.4077 188.258 55.4905C188.168 55.5732 188.063 55.6371 187.948 55.6784C187.833 55.7196 187.711 55.7373 187.589 55.7306C186.031 55.7443 186.835 53.5616 184.806 53.5616Z" fill="#fff"/></svg>