<svg width="65" height="43" viewBox="0 0 65 43" fill="none" xmlns="http://www.w3.org/2000/svg"><g clip-path="url(#clip0)"><path transform="translate(0 .5)" fill="#EC1C24" d="M0 0H65V42H0z"/><path d="M65 32C65 37.7989 61.5743 42.5 54.8438 42.5H10.1562C3.4257 42.5 0 37.7989 0 32V11C0 5.20114 3.4257 0.5 10.1562 0.5H54.8438C61.5743 0.5 65 5.20114 65 11V32Z" fill="#EC1C24"/><path d="M18.2812 0.5H29.4531V42.5H18.2812V0.5Z" fill="#E6E7E8"/><path d="M0 16.7273H65V26.2728H0V16.7273Z" fill="#E6E7E8"/><path d="M20.3125 0.5H27.4219V42.5H20.3125V0.5Z" fill="#2B3990"/><path d="M0 18.636H65V24.3633H0V18.636Z" fill="#2B3990"/></g><defs><clipPath id="clip0"><path fill="#fff" transform="translate(0 .5)" d="M0 0H65V42H0z"/></clipPath></defs></svg>