<svg width="65" height="43" viewBox="0 0 65 43" fill="none" xmlns="http://www.w3.org/2000/svg"><path d="M0 0.5H65V42.5H0V0.5Z" fill="#1E50A0"/><path d="M36.6934 13.604V17.0789H47.367L64.9998 5.68479V0.5H56.9755L36.6934 13.604Z" fill="#fff"/><path d="M64.9998 0.5H60.9876L36.6934 16.1981V17.0789H40.3438L64.9998 1.14768V0.5Z" fill="#D22F27"/><path d="M56.9765 42.5001H64.9998V37.3142L47.368 25.9211H36.6934V29.395L56.9765 42.5001Z" fill="#fff"/><path d="M65.0005 42.5001V39.906L43.3565 25.9211H38.3379L63.9961 42.5001H65.0005Z" fill="#D22F27"/><path d="M28.3064 29.3961V25.9211H17.6328L0 37.3153V42.5001H8.02435L28.3064 29.3961Z" fill="#fff"/><path d="M0 42.5001H4.01218L28.3064 26.802V25.9211H24.656L0 41.8524V42.5001Z" fill="#D22F27"/><path d="M8.02331 0.5H0V5.68589L17.6318 17.0789H28.3064V13.6051L8.02331 0.5Z" fill="#fff"/><path d="M0 0.5V3.09405L21.645 17.0789H26.6626L1.00436 0.5H0Z" fill="#D22F27"/><path d="M0 15.9736H65V27.0263H0V15.9736Z" fill="#fff"/><path d="M27.2578 0.5H37.7417V42.5H27.2578V0.5Z" fill="#fff"/><path d="M0 18.1843H65V24.8159H0V18.1843Z" fill="#D22F27"/><path d="M29.3555 0.5H35.6458V42.5H29.3555V0.5Z" fill="#D22F27"/></svg>