<svg width="65" height="43" viewBox="0 0 65 43" fill="none" xmlns="http://www.w3.org/2000/svg"><g clip-path="url(#clip0)"><path transform="translate(0 .5)" fill="#EEE" d="M0 0H65V42H0z"/><path d="M65 43.6538C65 45.7348 64.2391 47.7305 62.8847 49.2019C61.5302 50.6734 59.6932 51.5 57.7778 51.5H7.22222C5.30677 51.5 3.46977 50.6734 2.11534 49.2019C0.760911 47.7305 0 45.7348 0 43.6538V8.34615C0 6.26522 0.760911 4.26952 2.11534 2.79808C3.46977 1.32665 5.30677 0.5 7.22222 0.5H57.7778C59.6932 0.5 61.5302 1.32665 62.8847 2.79808C64.2391 4.26952 65 6.26522 65 8.34615V43.6538Z" fill="#EEE"/><path d="M33.6989 31.9835C40.1989 31.9835 45.4681 26.7143 45.4681 20.2143C45.4681 13.7143 40.1989 8.44507 33.6989 8.44507C27.199 8.44507 21.9297 13.7143 21.9297 20.2143C21.9297 26.7143 27.199 31.9835 33.6989 31.9835Z" fill="#ED1B2F"/></g><defs><clipPath id="clip0"><path fill="#fff" transform="translate(0 .5)" d="M0 0H65V42H0z"/></clipPath></defs></svg>