<svg width="65" height="43" viewBox="0 0 65 43" fill="none" xmlns="http://www.w3.org/2000/svg"><g clip-path="url(#clip0)"><path transform="translate(0 .5)" fill="#E30917" d="M0 0H65V42H0z"/><path d="M65 43.1366C65 45.1926 64.2391 47.1643 62.8847 48.6181C61.5302 50.0719 59.6932 50.8887 57.7778 50.8887H7.22222C5.30677 50.8887 3.46977 50.0719 2.11534 48.6181C0.760911 47.1643 0 45.1926 0 43.1366V8.2521C0 6.19612 0.760911 4.22434 2.11534 2.77054C3.46977 1.31674 5.30677 0.5 7.22222 0.5H57.7778C59.6932 0.5 61.5302 1.31674 62.8847 2.77054C64.2391 4.22434 65 6.19612 65 8.2521V43.1366Z" fill="#E30917"/><path d="M29.0072 33.3228C25.9232 33.3228 22.9656 32.0977 20.7849 29.917C18.6042 27.7363 17.3791 24.7786 17.3791 21.6946C17.3791 18.6107 18.6042 15.653 20.7849 13.4723C22.9656 11.2916 25.9232 10.0665 29.0072 10.0665C31.546 10.0665 33.891 10.8901 35.8039 12.272C34.4702 10.7549 32.8285 9.53969 30.9881 8.70723C29.1477 7.87477 27.1511 7.44423 25.1312 7.44434C21.3517 7.44434 17.7271 8.9457 15.0547 11.6182C12.3822 14.2906 10.8809 17.9152 10.8809 21.6946C10.8806 23.5662 11.249 25.4194 11.965 27.1486C12.6811 28.8777 13.7307 30.4489 15.054 31.7724C16.3773 33.0958 17.9483 34.1457 19.6774 34.862C21.4064 35.5782 23.2596 35.9469 25.1312 35.9469C29.3851 35.9469 33.1934 34.0728 35.8039 31.1173C33.8282 32.552 31.4489 33.3241 29.0072 33.3228ZM36.5907 22.1404L41.3195 23.2296L41.7459 28.0611L44.242 23.9021L48.9708 24.9893L45.7847 21.3303L48.2789 17.1693L43.8157 19.0686L40.6296 15.4077L41.0559 20.2411L36.5907 22.1404Z" fill="#EEE"/></g><defs><clipPath id="clip0"><path fill="#fff" transform="translate(0 .5)" d="M0 0H65V42H0z"/></clipPath></defs></svg>