<svg xmlns="http://www.w3.org/2000/svg" style="width:0; height:0; visibility:hidden;">
    <symbol id="icon_advantages-2" viewBox="0 0 49 68">
        <path id="advantages-2" class="cls-1" d="M836.773,1652.56h-2.228v-11.82a19.942,19.942,0,0,0-10.9-17.74,19.947,19.947,0,0,0,10.9-17.74v-11.83h2.228a2.215,2.215,0,1,0,0-4.43H792.227a2.215,2.215,0,1,0,0,4.43h2.228v11.83a19.943,19.943,0,0,0,10.9,17.74,19.942,19.942,0,0,0-10.9,17.74v11.82h-2.228a2.22,2.22,0,1,0,0,4.44h44.546A2.22,2.22,0,1,0,836.773,1652.56Zm-37.8-45.96c-0.109-1.26-.068-0.73-0.068-13.17h31.182c0,12.44.041,11.91-.068,13.17H798.977Zm31.114,43.45c-12.287-10.2-11.839-10.01-13.364-10.55v-2.46a2.227,2.227,0,0,0-4.454,0v2.46c-1.509.53-1.037,0.32-13.364,10.55v-9.31a15.561,15.561,0,0,1,13.364-15.35v2.78a2.227,2.227,0,0,0,4.454,0v-2.78a15.562,15.562,0,0,1,13.364,15.35v9.31Z" transform="translate(-790 -1589)"/> 
    </symbol>
    <symbol id="icon_bars" viewBox="0 0 12 14">
       <path d="M12 10.5v1q0 0.203-0.148 0.352t-0.352 0.148h-11q-0.203 0-0.352-0.148t-0.148-0.352v-1q0-0.203 0.148-0.352t0.352-0.148h11q0.203 0 0.352 0.148t0.148 0.352zM12 6.5v1q0 0.203-0.148 0.352t-0.352 0.148h-11q-0.203 0-0.352-0.148t-0.148-0.352v-1q0-0.203 0.148-0.352t0.352-0.148h11q0.203 0 0.352 0.148t0.148 0.352zM12 2.5v1q0 0.203-0.148 0.352t-0.352 0.148h-11q-0.203 0-0.352-0.148t-0.148-0.352v-1q0-0.203 0.148-0.352t0.352-0.148h11q0.203 0 0.352 0.148t0.148 0.352z"/> 
    </symbol>
    <symbol id="icon_button-arrow" viewBox="0 0 19.38 13.24">
      <title>button-arrow</title><g id="Layer_2" data-name="Layer 2"><g id="Layer_1-2" data-name="Layer 1"><path id="button-arrow" class="cls-1" d="M1,7.62H16l-3.91,3.91a1,1,0,1,0,1.42,1.41l5.62-5.62a1,1,0,0,0,0-1.41L13.47.29a1,1,0,0,0-1.41,0h0a1,1,0,0,0,0,1.39l0,0L16,5.62H1a1,1,0,0,0,0,2Z"/></g></g>
    </symbol>
    <symbol id="icon_chart" viewBox="0 0 16 12">
      <title>chart</title><g id="Layer_2" data-name="Layer 2"><g id="Layer_1-2" data-name="Layer 1"><path d="M5,6v4H3V6ZM8,2v8H6V2Zm8,9v1H0V0H1V11ZM11,4v6H9V4Zm3-3v9H12V1Z"/></g></g>
    </symbol>
    <symbol id="icon_clock" viewBox="0 0 12 12">
      <title>clock</title><g id="Layer_2" data-name="Layer 2"><g id="Layer_1-2" data-name="Layer 1"><path d="M7,3.25v3.5a.24.24,0,0,1-.07.18A.21.21,0,0,1,6.75,7H4.25A.24.24,0,0,1,4,6.75v-.5a.29.29,0,0,1,.07-.18A.24.24,0,0,1,4.25,6H6V3.25a.29.29,0,0,1,.07-.18A.24.24,0,0,1,6.25,3h.5A.24.24,0,0,1,7,3.25ZM10.25,6a4.15,4.15,0,0,0-.57-2.13A4.21,4.21,0,0,0,6,1.75a4.15,4.15,0,0,0-2.13.57A4.27,4.27,0,0,0,2.32,3.87,4.15,4.15,0,0,0,1.75,6a4.15,4.15,0,0,0,.57,2.13A4.19,4.19,0,0,0,3.87,9.68,4.15,4.15,0,0,0,6,10.25a4.21,4.21,0,0,0,2.14-.57A4.26,4.26,0,0,0,10.25,6ZM12,6a5.92,5.92,0,0,1-.8,3A6.05,6.05,0,0,1,9,11.2,5.92,5.92,0,0,1,6,12,5.95,5.95,0,0,1,.81,9,5.83,5.83,0,0,1,0,6,5.83,5.83,0,0,1,.81,3,5.85,5.85,0,0,1,3,.81,5.83,5.83,0,0,1,6,0,5.83,5.83,0,0,1,9,.81,5.95,5.95,0,0,1,12,6Z"/></g></g>
    </symbol>
    <symbol id="icon_download" viewBox="0 0 13 12">
      <title>download</title><g id="Layer_2" data-name="Layer 2"><g id="Layer_1-2" data-name="Layer 1"><path d="M10,10.5a.51.51,0,1,0-.15.35A.47.47,0,0,0,10,10.5Zm2,0a.51.51,0,1,0-.15.35A.47.47,0,0,0,12,10.5Zm1-1.75v2.5a.69.69,0,0,1-.22.53.71.71,0,0,1-.53.22H.75a.71.71,0,0,1-.53-.22A.69.69,0,0,1,0,11.25V8.75a.71.71,0,0,1,.22-.53A.69.69,0,0,1,.75,8H4.38L5.44,9.06a1.5,1.5,0,0,0,2.12,0L8.62,8h3.63a.75.75,0,0,1,.75.75ZM10.46,4.31a.44.44,0,0,1-.11.54l-3.5,3.5a.48.48,0,0,1-.7,0l-3.5-3.5a.44.44,0,0,1-.11-.54A.46.46,0,0,1,3,4H5V.5A.47.47,0,0,1,5.15.15.47.47,0,0,1,5.5,0h2a.47.47,0,0,1,.35.15A.47.47,0,0,1,8,.5V4h2A.46.46,0,0,1,10.46,4.31Z"/></g></g>
    </symbol>
    <symbol id="icon_home" viewBox="0 0 13 14">
       <path d="M11 7.75v3.75q0 0.203-0.148 0.352t-0.352 0.148h-3v-3h-2v3h-3q-0.203 0-0.352-0.148t-0.148-0.352v-3.75q0-0.008 0.004-0.023t0.004-0.023l4.492-3.703 4.492 3.703q0.008 0.016 0.008 0.047zM12.742 7.211l-0.484 0.578q-0.062 0.070-0.164 0.086h-0.023q-0.102 0-0.164-0.055l-5.406-4.508-5.406 4.508q-0.094 0.062-0.187 0.055-0.102-0.016-0.164-0.086l-0.484-0.578q-0.062-0.078-0.055-0.184t0.086-0.168l5.617-4.68q0.25-0.203 0.594-0.203t0.594 0.203l1.906 1.594v-1.523q0-0.109 0.070-0.18t0.18-0.070h1.5q0.109 0 0.18 0.070t0.070 0.18v3.188l1.711 1.422q0.078 0.062 0.086 0.168t-0.055 0.184z"/> 
    </symbol>
    <symbol id="icon_magnifying-glass" viewBox="0 0 42 42">
      <title>magnifying-glass</title><g id="Layer_2" data-name="Layer 2"><g id="magnifying-glass"><circle id="&#x42D;&#x43B;&#x43B;&#x438;&#x43F;&#x441;_1" data-name="&#x42D;&#x43B;&#x43B;&#x438;&#x43F;&#x441; 1" class="cls-1" cx="21" cy="21" r="20"/><path id="Forma_1" data-name="Forma 1" class="cls-2" d="M27.67,26l-3.21-3.26a5.86,5.86,0,0,0,.86-3.05,5.66,5.66,0,1,0-5.66,5.74,5.57,5.57,0,0,0,3.23-1l3.18,3.22a1.13,1.13,0,0,0,1.58,0l0,0A1.16,1.16,0,0,0,27.67,26Zm-8-2.43a3.88,3.88,0,1,1,3.82-3.92v0A3.85,3.85,0,0,1,19.66,23.61Z"/></g></g>
    </symbol>
    <symbol id="icon_mail" viewBox="0 0 14 11">
      <title>mail</title><g id="Layer_2" data-name="Layer 2"><g id="Layer_1-2" data-name="Layer 1"><path d="M13,9.75v-6a5.29,5.29,0,0,1-.54.52c-1.4,1.07-2.5,2-3.33,2.64l-.64.52a4.47,4.47,0,0,1-.68.38A1.9,1.9,0,0,1,7,8H7a1.94,1.94,0,0,1-.8-.19,3.32,3.32,0,0,1-.67-.38c-.17-.13-.39-.3-.65-.52C4,6.22,2.94,5.34,1.54,4.27A5.29,5.29,0,0,1,1,3.75v6a.24.24,0,0,0,.25.25h11.5A.24.24,0,0,0,13,9.75Zm0-8.21V1.25c0-.07,0-.1,0-.1s0,0,0-.07,0-.07-.07-.06a.15.15,0,0,1-.11,0H1.25a.21.21,0,0,0-.17.07A.25.25,0,0,0,1,1.25,2.74,2.74,0,0,0,2.15,3.47L5.28,6l.28.23.35.29.35.24a2.36,2.36,0,0,0,.4.22A.85.85,0,0,0,7,7H7a.9.9,0,0,0,.34-.07,2,2,0,0,0,.39-.22l.35-.24.36-.29L8.72,6l3.13-2.48a3.92,3.92,0,0,0,.79-.9,2,2,0,0,0,.36-1Zm1-.29v8.5A1.26,1.26,0,0,1,12.75,11H1.25a1.18,1.18,0,0,1-.88-.37A1.18,1.18,0,0,1,0,9.75V1.25A1.18,1.18,0,0,1,.37.37,1.18,1.18,0,0,1,1.25,0h11.5a1.18,1.18,0,0,1,.88.37A1.18,1.18,0,0,1,14,1.25Z"/></g></g>
    </symbol>
    <symbol id="icon_map-marker" viewBox="0 0 8 14">
       <path d="M6 5q0-0.828-0.586-1.414t-1.414-0.586-1.414 0.586-0.586 1.414 0.586 1.414 1.414 0.586 1.414-0.586 0.586-1.414zM8 5q0 0.852-0.258 1.398l-2.844 6.047q-0.125 0.258-0.371 0.406t-0.527 0.148-0.527-0.148-0.363-0.406l-2.852-6.047q-0.258-0.547-0.258-1.398 0-1.656 1.172-2.828t2.828-1.172 2.828 1.172 1.172 2.828z"/> 
    </symbol>
    <symbol id="icon_nav-icon" viewBox="0 0 7.8 4.55">
      <title>nav-icon</title><g id="Layer_2" data-name="Layer 2"><g id="Layer_1-2" data-name="Layer 1"><path d="M7.8.65a.25.25,0,0,1-.08.18L4.08,4.47a.24.24,0,0,1-.36,0L.08.83A.25.25,0,0,1,0,.65.25.25,0,0,1,.08.47L.47.08A.25.25,0,0,1,.65,0,.25.25,0,0,1,.83.08L3.9,3.15,7,.08a.24.24,0,0,1,.36,0l.39.39A.25.25,0,0,1,7.8.65Z"/></g></g>
    </symbol>
    <symbol id="icon_phone" viewBox="0 0 11 14">
      <title>phone</title><g id="Layer_2" data-name="Layer 2"><g id="Layer_1-2" data-name="Layer 1"><path d="M11,8.69a2.78,2.78,0,0,1-.08.55,3.88,3.88,0,0,1-.16.53,2.1,2.1,0,0,1-1,.83,3,3,0,0,1-1.45.4,2.73,2.73,0,0,1-.41,0,3.42,3.42,0,0,1-.45-.1l-.37-.11-.43-.16-.39-.14a6.86,6.86,0,0,1-1.36-.65A11.4,11.4,0,0,1,2.87,8.13,11.4,11.4,0,0,1,1.19,6.06,7,7,0,0,1,.54,4.69S.48,4.52.4,4.31L.24,3.88c0-.08-.07-.21-.12-.37A3.24,3.24,0,0,1,0,3.06a2.73,2.73,0,0,1,0-.41A2.94,2.94,0,0,1,.4,1.2a2.1,2.1,0,0,1,.83-1A2.62,2.62,0,0,1,1.76.08,2.78,2.78,0,0,1,2.31,0l.17,0c.09,0,.23.23.41.6.06.1.14.24.23.42s.19.35.28.49.16.29.24.42l.14.2a2.3,2.3,0,0,1,.16.27A.49.49,0,0,1,4,2.65.71.71,0,0,1,3.78,3a3.35,3.35,0,0,1-.49.43c-.17.13-.33.27-.48.41a.6.6,0,0,0-.22.36.67.67,0,0,0,0,.18l.07.16a1.75,1.75,0,0,0,.11.18l.09.15A7.92,7.92,0,0,0,4.25,6.75,8.38,8.38,0,0,0,6.08,8.11l.15.09.19.11.16.06a.45.45,0,0,0,.17,0,.55.55,0,0,0,.36-.22,4,4,0,0,0,.42-.49A3.89,3.89,0,0,1,8,7.22.6.6,0,0,1,8.35,7a.59.59,0,0,1,.22,0l.28.17L9,7.36l.42.24.5.27.42.24c.36.18.56.32.59.41a.35.35,0,0,1,0,.16Z"/></g></g>
    </symbol>
    <symbol id="icon_print" viewBox="0 0 13 14">
       <path d="M3 12h7v-2h-7v2zM3 7h7v-3h-1.25q-0.312 0-0.531-0.219t-0.219-0.531v-1.25h-5v5zM12 7.5q0-0.203-0.148-0.352t-0.352-0.148-0.352 0.148-0.148 0.352 0.148 0.352 0.352 0.148 0.352-0.148 0.148-0.352zM13 7.5v3.25q0 0.102-0.074 0.176t-0.176 0.074h-1.75v1.25q0 0.312-0.219 0.531t-0.531 0.219h-7.5q-0.312 0-0.531-0.219t-0.219-0.531v-1.25h-1.75q-0.102 0-0.176-0.074t-0.074-0.176v-3.25q0-0.617 0.441-1.059t1.059-0.441h0.5v-4.25q0-0.312 0.219-0.531t0.531-0.219h5.25q0.312 0 0.688 0.156t0.594 0.375l1.187 1.187q0.219 0.219 0.375 0.594t0.156 0.688v2h0.5q0.617 0 1.059 0.441t0.441 1.059z"/> 
    </symbol>
    <symbol id="icon_refresh" viewBox="0 0 12 14">
       <path d="M11.805 8.25q0 0.039-0.008 0.055-0.5 2.094-2.094 3.395t-3.734 1.301q-1.141 0-2.207-0.43t-1.902-1.227l-1.008 1.008q-0.148 0.148-0.352 0.148t-0.352-0.148-0.148-0.352v-3.5q0-0.203 0.148-0.352t0.352-0.148h3.5q0.203 0 0.352 0.148t0.148 0.352-0.148 0.352l-1.070 1.070q0.555 0.516 1.258 0.797t1.461 0.281q1.047 0 1.953-0.508t1.453-1.398q0.086-0.133 0.414-0.914 0.062-0.18 0.234-0.18h1.5q0.102 0 0.176 0.074t0.074 0.176zM12 2v3.5q0 0.203-0.148 0.352t-0.352 0.148h-3.5q-0.203 0-0.352-0.148t-0.148-0.352 0.148-0.352l1.078-1.078q-1.156-1.070-2.727-1.070-1.047 0-1.953 0.508t-1.453 1.398q-0.086 0.133-0.414 0.914-0.062 0.18-0.234 0.18h-1.555q-0.102 0-0.176-0.074t-0.074-0.176v-0.055q0.508-2.094 2.109-3.395t3.75-1.301q1.141 0 2.219 0.434t1.914 1.223l1.016-1.008q0.148-0.148 0.352-0.148t0.352 0.148 0.148 0.352z"/> 
    </symbol>
    <symbol id="icon_search" viewBox="0 0 13 13">
      <title>search</title><g id="Layer_2" data-name="Layer 2"><g id="Layer_1-2" data-name="Layer 1"><path d="M9,5.5A3.35,3.35,0,0,0,8,3,3.33,3.33,0,0,0,5.5,2,3.38,3.38,0,0,0,3,3,3.35,3.35,0,0,0,2,5.5,3.37,3.37,0,0,0,3,8,3.37,3.37,0,0,0,5.5,9,3.36,3.36,0,0,0,8,8,3.37,3.37,0,0,0,9,5.5ZM13,12a1,1,0,0,1-1,1,1,1,0,0,1-.7-.29L8.62,10A5.32,5.32,0,0,1,5.5,11a5.42,5.42,0,0,1-2.14-.43A5.44,5.44,0,0,1,.43,7.64,5.38,5.38,0,0,1,0,5.5,5.42,5.42,0,0,1,.43,3.36,5.53,5.53,0,0,1,3.36.43,5.42,5.42,0,0,1,5.5,0,5.38,5.38,0,0,1,7.64.43a5.44,5.44,0,0,1,2.93,2.93A5.42,5.42,0,0,1,11,5.5a5.32,5.32,0,0,1-1,3.12l2.68,2.68A.93.93,0,0,1,13,12Z"/></g></g>
    </symbol>
    <symbol id="icon_service-icon-1" viewBox="0 0 68 65">
      <title>service-icon-1</title><g id="Layer_2" data-name="Layer 2"><g id="Layer_1-2" data-name="Layer 1"><g id="Layer_2-2" data-name="Layer 2"><g id="Layer_1-2-2" data-name="Layer 1-2"><path id="service-icon-1" class="cls-1" d="M52.25,52.85h3.93a2.19,2.19,0,0,0,2.18-2.18h0V8.58a5.46,5.46,0,0,0-5.44-5.46H41V0H27.05V3.12h-12A5.44,5.44,0,0,0,9.64,8.58h0V50.66a2.19,2.19,0,0,0,2.17,2.19h3.94L0,65H10.12L22.46,52.85H45.54L57.88,65H68ZM45.54,46a3.34,3.34,0,1,1,3.34,3.35A3.35,3.35,0,0,1,45.54,46ZM19.36,49.31a3.35,3.35,0,1,1,3.33-3.37V46h0a3.35,3.35,0,0,1-3.34,3.35ZM16.15,32a1.09,1.09,0,0,1-1.09-1.09h0V9.76a1.09,1.09,0,0,1,1.09-1.09h35.7a1.09,1.09,0,0,1,1.09,1.09h0V30.91A1.09,1.09,0,0,1,51.85,32H16.15Z"/></g></g></g></g>
    </symbol>
    <symbol id="icon_service-icon-2" viewBox="0 0 68 53">
      <title>service-icon-2</title><g id="Layer_2" data-name="Layer 2"><g id="Layer_1-2" data-name="Layer 1"><g id="Layer_2-2" data-name="Layer 2"><g id="Layer_1-2-2" data-name="Layer 1-2"><path id="service-icon-2" class="cls-1" d="M61.35,44.17H48.78V39.75h6.65a2.21,2.21,0,0,0,2.22-2.2h0V24.29a2.21,2.21,0,0,0-2.21-2.21H48.78V15.46A15.51,15.51,0,0,0,33.26,0H11.09A11.08,11.08,0,0,0,0,11V33.13A15.51,15.51,0,0,0,15.52,48.59H61.35a2.19,2.19,0,0,1,2.21,2.19h0a2.22,2.22,0,0,0,4.44,0A6.65,6.65,0,0,0,61.35,44.17ZM48.78,26.5h4.44v8.83H48.78ZM24.39,39.75A15.46,15.46,0,1,1,39.91,24.29,15.46,15.46,0,0,1,24.39,39.75Zm0-26.5a11,11,0,1,0,.09,0Z"/></g></g></g></g>
    </symbol>
    <symbol id="icon_service-icon-3" viewBox="0 0 46.99 67.99">
      <title>service-icon-3</title><g id="Layer_2" data-name="Layer 2"><g id="Layer_1-2" data-name="Layer 1"><g id="Layer_2-2" data-name="Layer 2"><g id="Layer_1-2-2" data-name="Layer 1-2"><path id="service-icon-3" class="cls-1" d="M25.11,44.83a1.4,1.4,0,0,0,1.41-1.39h0v-.65a1.4,1.4,0,0,0-1.4-1.4H1.52A1.4,1.4,0,0,0,.11,42.77h0v.65a1.4,1.4,0,0,0,1.4,1.4h23.6ZM39.92,16a24,24,0,0,0-7.68-5.14h0a2.11,2.11,0,0,0-2.58.79L28,14.15a5.26,5.26,0,0,0-1.3-.26h-.41a5.26,5.26,0,0,0-1.12.12l2.89-4.47L29,8.14a2.08,2.08,0,0,0-.62-2.87h0L20.6.32A2.13,2.13,0,0,0,17.67,1L4.25,21.71a2.08,2.08,0,0,0,.61,2.87h0l1.46.94-.66,1L5,27.59l-.41.65a2.07,2.07,0,0,0,.6,2.87h0l1.26.79a2.12,2.12,0,0,0,2.92-.63h0l.42-.65.66-1,.66-1,1.45.91a2,2,0,0,0,1.14.33,2.16,2.16,0,0,0,1.79-1L21,20.35a4.82,4.82,0,0,0,.55,1.42,5.37,5.37,0,0,0,9.75-4.4,17.84,17.84,0,0,1,4.07,3,17.52,17.52,0,0,1,.16,24.78h0l-.15.15A17.91,17.91,0,0,1,28,49.71a2.23,2.23,0,0,1-.63.09H20.5a2.1,2.1,0,0,1-2.12-2.08v0h0v-.47H8.26v9.45H39.31a5.11,5.11,0,0,0,2.46-8.93A23.76,23.76,0,0,0,39.92,16ZM26.3,21.11a1.91,1.91,0,0,1-.33-3.8h.33a1.92,1.92,0,0,1,.28,3.83H26.3ZM39.15,53.28a1.74,1.74,0,0,1-.75.16,1.79,1.79,0,0,1,0-3.58h0a1.61,1.61,0,0,1,.75.16,1.75,1.75,0,0,1,1.06,1.62A1.8,1.8,0,0,1,39.15,53.28ZM8.26,59.17A8.87,8.87,0,0,0,0,68H37a2.1,2.1,0,0,0,2.12-2.08v0h0V59.15H8.26Z"/></g></g></g></g>
    </symbol></svg>