<?xml version="1.0" encoding="UTF-8" standalone="no"?>
<svg
   xmlns:dc="http://purl.org/dc/elements/1.1/"
   xmlns:cc="http://creativecommons.org/ns#"
   xmlns:rdf="http://www.w3.org/1999/02/22-rdf-syntax-ns#"
   xmlns:svg="http://www.w3.org/2000/svg"
   xmlns="http://www.w3.org/2000/svg"
   version="1.1"
   id="svg8485"
   viewBox="0 0 69.57143 69.571429"
   height="19.634604mm"
   width="19.634604mm">
  <defs
     id="defs8487" />
  <metadata
     id="metadata8490">
    <rdf:RDF>
      <cc:Work
         rdf:about="">
        <dc:format>image/svg+xml</dc:format>
        <dc:type
           rdf:resource="http://purl.org/dc/dcmitype/StillImage" />
        <dc:title></dc:title>
      </cc:Work>
    </rdf:RDF>
  </metadata>
  <g
     transform="translate(-85.214287,-160.43362)"
     id="layer1">
    <circle
       r="34.285713"
       cy="195.21933"
       cx="120"
       id="path8493"
       style="fill:#ffffff;fill-opacity:1;stroke:none" />
    <g
       id="g8581"
       transform="matrix(0.05446517,0,0,0.05446517,94.38411,167.06347)">
      <g
         id="g8583">
        <path
           id="path8585"
           d="m 508.45,640.5 c 11,0 20,-9 20,-20 l 0,-9.3 c 0,-11 -9,-20 -20,-20 l -334,0 c -11,0 -20,9 -20,20 l 0,9.3 c 0,11 9,20 20,20 l 334,0 z"
           style="fill:#4cbaba" />
        <path
           id="path8587"
           d="m 718.15,228.2 c -31.4,-31.4 -67.9,-56 -108.7,-73.3 l -0.2,-0.1 c -13.3,-5.6 -28.699,-0.8 -36.5,11.3 l -23.199,36.1 c -5.801,-2 -12,-3.2 -18.4,-3.7 -1.9,-0.1 -3.9,-0.2 -5.9,-0.2 -5.399,0 -10.699,0.6 -15.8,1.7 l 40.9,-63.8 12.7,-19.8 C 571.95,102.5 567.95,83.9 553.95,75 L 444.65,4.7 c -5,-3.2 -10.6,-4.7 -16.2,-4.7 -9.899,0 -19.6,4.9 -25.3,13.8 l -190.1,296.4 c -8.9,13.9 -4.9,32.5 9.1,41.4 l 20.7,13.3 -9.4,14.7 -9.4,14.7 -5.9,9.2 c -8.9,13.899 -4.9,32.5 9.1,41.399 l 17.8,11.4 c 13.9,8.9 32.5,4.9 41.4,-9.1 l 5.9,-9.2 9.399,-14.7 9.4,-14.7 20.4,13.101 c 5,3.199 10.6,4.699 16.199,4.699 9.9,0 19.601,-4.899 25.301,-13.8 l 78,-121.7 c 1.6,7.2 4.199,14 7.8,20.3 3.1,5.5 6.8,10.6 11.1,15.1 14.4,15.2 34.9,24.6 57.601,23.9 40.1,-1.2 72.699,-33.8 73.8,-73.9 0.3,-9.8 -1.3,-19.2 -4.4,-27.9 20.9,11.4 40.3,25.9 57.601,43.2 47.6,47.6 73.8,110.8 73.8,178.101 0,67.3 -26.2,130.5 -73.8,178.1 -29.601,29.6 -65.2,50.9 -104.101,62.8 -2.899,0.9 -5.899,1.3 -8.899,1.3 l -98.4,0 c -16.6,0 -30,-13.399 -30,-30 l 0,-6.7 -143.3,0 0,36.699 0,47.4 0,50.9 c 3.1,-0.2 6.3,-0.301 9.399,-0.301 l 197.1,0 35.899,0 171.301,0 23.6,0 2.3,0 c 34.2,-6.1 60.3,-36 60.3,-72 0,-22.199 -9.899,-42.1 -25.5,-55.5 19.2,-24.199 35.101,-50.8 47.2,-79.399 17.8,-42.2 26.9,-87 26.9,-133.101 0,-46.1 -9,-90.899 -26.9,-133.1 C 774.15,296.1 749.55,259.5 718.15,228.2 Z m -192.9,73.5 c -12.699,0 -23.3,-8.6 -26.399,-20.4 -0.601,-2.2 -0.9,-4.6 -0.9,-7 0,-13.5 9.8,-24.7 22.7,-26.9 1.5,-0.3 3.1,-0.4 4.7,-0.4 15.1,0 27.3,12.2 27.3,27.3 0,15.1 -12.301,27.4 -27.401,27.4 z m 181.9,459.5 c -3.2,1.5 -6.8,2.3 -10.6,2.3 -10.101,0 -18.801,-5.8 -22.9,-14.3 -1.7,-3.4 -2.6,-7.301 -2.6,-11.301 0,-14.1 11.399,-25.6 25.6,-25.6 3.8,0 7.4,0.8 10.6,2.3 1.7,0.8 3.4,1.8 4.9,2.9 6.1,4.7 10.1,12 10.1,20.3 -0.1,10.501 -6.3,19.401 -15.1,23.401 z"
           style="fill:#4cbaba" />
        <path
           id="path8589"
           d="m 269.85,845.3 c -65.4,4.8 -116.9,59.4 -116.9,126 l 524.2,0 c 16.6,0 30,-13.4 30,-30 l 0,-48.1 0,-48.2 -427.9,0 c -3.2,0 -6.3,0.1 -9.4,0.3 z"
           style="fill:#4cbaba" />
      </g>
    </g>
  </g>
</svg>
