<?xml version="1.0" encoding="UTF-8" standalone="no"?>
<svg
   xmlns:dc="http://purl.org/dc/elements/1.1/"
   xmlns:cc="http://creativecommons.org/ns#"
   xmlns:rdf="http://www.w3.org/1999/02/22-rdf-syntax-ns#"
   xmlns:svg="http://www.w3.org/2000/svg"
   xmlns="http://www.w3.org/2000/svg"
   version="1.1"
   id="svg8485"
   viewBox="0 0 69.57143 69.571429"
   height="19.634604mm"
   width="19.634604mm">
  <defs
     id="defs8487" />
  <metadata
     id="metadata8490">
    <rdf:RDF>
      <cc:Work
         rdf:about="">
        <dc:format>image/svg+xml</dc:format>
        <dc:type
           rdf:resource="http://purl.org/dc/dcmitype/StillImage" />
        <dc:title></dc:title>
      </cc:Work>
    </rdf:RDF>
  </metadata>
  <g
     transform="translate(-85.214287,-160.43362)"
     id="layer1">
    <circle
       r="34.285713"
       cy="195.21933"
       cx="120"
       id="path8493"
       style="fill:#ffffff;fill-opacity:1;stroke:none" />
    <g
       id="g9387"
       transform="matrix(0.08104092,0,0,0.08104092,95.219145,169.55908)">
      <path
         id="path9389"
         d="m 470.263,488.679 35.368,0 c 10.831,0 19.61,-8.779 19.61,-19.61 l 0,-377.843 c 0,-27.077 -21.95,-49.027 -49.026,-49.027 l -107.65,0 0,-27.989 -125.129,0 0,27.989 -107.65,0 c -27.077,0 -49.027,21.95 -49.027,49.027 l 0,377.842 c 0,10.831 8.78,19.61 19.611,19.61 l 35.368,0 L 0,597.79 l 91.111,0 111.046,-109.111 207.686,0 111.046,109.111 91.111,0 -141.737,-109.111 z m -60.42,-61.831 c 0,-16.593 13.451,-30.045 30.045,-30.045 16.593,0 30.044,13.451 30.044,30.045 0,16.593 -13.451,30.045 -30.044,30.045 -16.594,0 -30.045,-13.453 -30.045,-30.045 z m -235.634,30.045 c -16.593,0 -30.044,-13.452 -30.044,-30.045 0,-16.593 13.451,-30.045 30.044,-30.045 16.593,0 30.045,13.451 30.045,30.045 0,16.592 -13.452,30.045 -30.045,30.045 z m -28.853,-155.35 c -5.415,0 -9.805,-4.39 -9.805,-9.805 l 0,-189.874 c 0,-5.415 4.39,-9.805 9.805,-9.805 l 321.289,0 c 5.415,0 9.805,4.39 9.805,9.805 l 0,189.874 c 0,5.415 -4.39,9.805 -9.805,9.805 l -321.289,0 0,0 z"
         style="fill:#4cbaba" />
    </g>
  </g>
</svg>
