<?xml version="1.0" encoding="UTF-8" standalone="no"?>
<svg
   xmlns:dc="http://purl.org/dc/elements/1.1/"
   xmlns:cc="http://creativecommons.org/ns#"
   xmlns:rdf="http://www.w3.org/1999/02/22-rdf-syntax-ns#"
   xmlns:svg="http://www.w3.org/2000/svg"
   xmlns="http://www.w3.org/2000/svg"
   version="1.1"
   id="svg8485"
   viewBox="0 0 69.57143 69.571429"
   height="19.634604mm"
   width="19.634604mm">
  <defs
     id="defs8487" />
  <metadata
     id="metadata8490">
    <rdf:RDF>
      <cc:Work
         rdf:about="">
        <dc:format>image/svg+xml</dc:format>
        <dc:type
           rdf:resource="http://purl.org/dc/dcmitype/StillImage" />
        <dc:title></dc:title>
      </cc:Work>
    </rdf:RDF>
  </metadata>
  <g
     transform="translate(-85.214287,-160.43362)"
     id="layer1">
    <circle
       r="34.285713"
       cy="195.21933"
       cx="120"
       id="path8493"
       style="fill:#ffffff;fill-opacity:1;stroke:none" />
    <g
       id="g10132"
       transform="matrix(0.22960604,0,0,0.22960604,101.27645,170.58303)">
      <g
         id="g10134">
        <path
           id="path10136"
           d="m 72.568,73.912 c -14.819,0 -26.877,12.058 -26.877,26.877 0,14.818 12.058,26.877 26.877,26.877 14.819,0 26.876,-12.059 26.876,-26.877 C 99.445,85.969 87.387,73.912 72.568,73.912 Z"
           style="fill:#4cbaba" />
        <path
           id="path10138"
           d="m 196.202,151.184 -51.066,0 0,-55.77 c 0,-15.623 -5.007,-30.069 -13.437,-41.922 l 0,-17.029 c 0,-2.974 -2.405,-5.375 -5.376,-5.375 l -20.288,0 C 96.01,25.846 84.647,22.846 72.569,22.846 32.555,22.846 0,55.399 0,95.414 l 0,77.941 c 0,2.974 2.402,5.376 5.375,5.376 l 134.385,0 c 2.971,0 5.375,-2.402 5.375,-5.376 l 0,-11.421 45.69,0 0,11.421 c 0,2.974 2.405,5.376 5.376,5.376 2.973,0 5.375,-2.402 5.375,-5.376 l 0,-16.797 c 0.001,-2.97 -2.402,-5.374 -5.374,-5.374 z M 72.568,138.417 c -20.743,0 -37.628,-16.883 -37.628,-37.628 0,-20.743 16.885,-37.628 37.628,-37.628 20.743,0 37.627,16.885 37.627,37.628 0.001,20.745 -16.884,37.628 -37.627,37.628 z"
           style="fill:#4cbaba" />
      </g>
    </g>
  </g>
</svg>
