<svg xmlns="http://www.w3.org/2000/svg" viewBox="0 0 49 68">
<defs>
    <style>
      .cls-1 {
        fill: #4cbaba;
        fill-rule: evenodd;
      }
    </style>
  </defs>
  <path id="advantages-2" class="cls-1" d="M836.773,1652.56h-2.228v-11.82a19.942,19.942,0,0,0-10.9-17.74,19.947,19.947,0,0,0,10.9-17.74v-11.83h2.228a2.215,2.215,0,1,0,0-4.43H792.227a2.215,2.215,0,1,0,0,4.43h2.228v11.83a19.943,19.943,0,0,0,10.9,17.74,19.942,19.942,0,0,0-10.9,17.74v11.82h-2.228a2.22,2.22,0,1,0,0,4.44h44.546A2.22,2.22,0,1,0,836.773,1652.56Zm-37.8-45.96c-0.109-1.26-.068-0.73-0.068-13.17h31.182c0,12.44.041,11.91-.068,13.17H798.977Zm31.114,43.45c-12.287-10.2-11.839-10.01-13.364-10.55v-2.46a2.227,2.227,0,0,0-4.454,0v2.46c-1.509.53-1.037,0.32-13.364,10.55v-9.31a15.561,15.561,0,0,1,13.364-15.35v2.78a2.227,2.227,0,0,0,4.454,0v-2.78a15.562,15.562,0,0,1,13.364,15.35v9.31Z" transform="translate(-790 -1589)"/>
</svg>
