<svg xmlns="http://www.w3.org/2000/svg" viewBox="0 0 12 12"><title>clock</title><g id="Layer_2" data-name="Layer 2"><g id="Layer_1-2" data-name="Layer 1"><path d="M7,3.25v3.5a.24.24,0,0,1-.07.18A.21.21,0,0,1,6.75,7H4.25A.24.24,0,0,1,4,6.75v-.5a.29.29,0,0,1,.07-.18A.24.24,0,0,1,4.25,6H6V3.25a.29.29,0,0,1,.07-.18A.24.24,0,0,1,6.25,3h.5A.24.24,0,0,1,7,3.25ZM10.25,6a4.15,4.15,0,0,0-.57-2.13A4.21,4.21,0,0,0,6,1.75a4.15,4.15,0,0,0-2.13.57A4.27,4.27,0,0,0,2.32,3.87,4.15,4.15,0,0,0,1.75,6a4.15,4.15,0,0,0,.57,2.13A4.19,4.19,0,0,0,3.87,9.68,4.15,4.15,0,0,0,6,10.25a4.21,4.21,0,0,0,2.14-.57A4.26,4.26,0,0,0,10.25,6ZM12,6a5.92,5.92,0,0,1-.8,3A6.05,6.05,0,0,1,9,11.2,5.92,5.92,0,0,1,6,12,5.95,5.95,0,0,1,.81,9,5.83,5.83,0,0,1,0,6,5.83,5.83,0,0,1,.81,3,5.85,5.85,0,0,1,3,.81,5.83,5.83,0,0,1,6,0,5.83,5.83,0,0,1,9,.81,5.95,5.95,0,0,1,12,6Z"/></g></g></svg>