<svg xmlns="http://www.w3.org/2000/svg" viewBox="0 0 13 12"><title>download</title><g id="Layer_2" data-name="Layer 2"><g id="Layer_1-2" data-name="Layer 1"><path d="M10,10.5a.51.51,0,1,0-.15.35A.47.47,0,0,0,10,10.5Zm2,0a.51.51,0,1,0-.15.35A.47.47,0,0,0,12,10.5Zm1-1.75v2.5a.69.69,0,0,1-.22.53.71.71,0,0,1-.53.22H.75a.71.71,0,0,1-.53-.22A.69.69,0,0,1,0,11.25V8.75a.71.71,0,0,1,.22-.53A.69.69,0,0,1,.75,8H4.38L5.44,9.06a1.5,1.5,0,0,0,2.12,0L8.62,8h3.63a.75.75,0,0,1,.75.75ZM10.46,4.31a.44.44,0,0,1-.11.54l-3.5,3.5a.48.48,0,0,1-.7,0l-3.5-3.5a.44.44,0,0,1-.11-.54A.46.46,0,0,1,3,4H5V.5A.47.47,0,0,1,5.15.15.47.47,0,0,1,5.5,0h2a.47.47,0,0,1,.35.15A.47.47,0,0,1,8,.5V4h2A.46.46,0,0,1,10.46,4.31Z"/></g></g></svg>