<svg xmlns="http://www.w3.org/2000/svg" viewBox="0 0 42 42"><defs><style>.cls-1{fill:none;stroke:#fff;stroke-linejoin:round;stroke-width:2px;}.cls-2{fill:#fff;}</style></defs><title>magnifying-glass</title><g id="Layer_2" data-name="Layer 2"><g id="magnifying-glass"><circle id="Эллипс_1" data-name="Эллипс 1" class="cls-1" cx="21" cy="21" r="20"/><path id="Forma_1" data-name="Forma 1" class="cls-2" d="M27.67,26l-3.21-3.26a5.86,5.86,0,0,0,.86-3.05,5.66,5.66,0,1,0-5.66,5.74,5.57,5.57,0,0,0,3.23-1l3.18,3.22a1.13,1.13,0,0,0,1.58,0l0,0A1.16,1.16,0,0,0,27.67,26Zm-8-2.43a3.88,3.88,0,1,1,3.82-3.92v0A3.85,3.85,0,0,1,19.66,23.61Z"/></g></g></svg>