<svg xmlns="http://www.w3.org/2000/svg" viewBox="0 0 14 11"><title>mail</title><g id="Layer_2" data-name="Layer 2"><g id="Layer_1-2" data-name="Layer 1"><path d="M13,9.75v-6a5.29,5.29,0,0,1-.54.52c-1.4,1.07-2.5,2-3.33,2.64l-.64.52a4.47,4.47,0,0,1-.68.38A1.9,1.9,0,0,1,7,8H7a1.94,1.94,0,0,1-.8-.19,3.32,3.32,0,0,1-.67-.38c-.17-.13-.39-.3-.65-.52C4,6.22,2.94,5.34,1.54,4.27A5.29,5.29,0,0,1,1,3.75v6a.24.24,0,0,0,.25.25h11.5A.24.24,0,0,0,13,9.75Zm0-8.21V1.25c0-.07,0-.1,0-.1s0,0,0-.07,0-.07-.07-.06a.15.15,0,0,1-.11,0H1.25a.21.21,0,0,0-.17.07A.25.25,0,0,0,1,1.25,2.74,2.74,0,0,0,2.15,3.47L5.28,6l.28.23.35.29.35.24a2.36,2.36,0,0,0,.4.22A.85.85,0,0,0,7,7H7a.9.9,0,0,0,.34-.07,2,2,0,0,0,.39-.22l.35-.24.36-.29L8.72,6l3.13-2.48a3.92,3.92,0,0,0,.79-.9,2,2,0,0,0,.36-1Zm1-.29v8.5A1.26,1.26,0,0,1,12.75,11H1.25a1.18,1.18,0,0,1-.88-.37A1.18,1.18,0,0,1,0,9.75V1.25A1.18,1.18,0,0,1,.37.37,1.18,1.18,0,0,1,1.25,0h11.5a1.18,1.18,0,0,1,.88.37A1.18,1.18,0,0,1,14,1.25Z"/></g></g></svg>