<svg xmlns="http://www.w3.org/2000/svg"  viewBox="0 0 11 14"><title>phone</title><g id="Layer_2" data-name="Layer 2"><g id="Layer_1-2" data-name="Layer 1"><path d="M11,8.69a2.78,2.78,0,0,1-.08.55,3.88,3.88,0,0,1-.16.53,2.1,2.1,0,0,1-1,.83,3,3,0,0,1-1.45.4,2.73,2.73,0,0,1-.41,0,3.42,3.42,0,0,1-.45-.1l-.37-.11-.43-.16-.39-.14a6.86,6.86,0,0,1-1.36-.65A11.4,11.4,0,0,1,2.87,8.13,11.4,11.4,0,0,1,1.19,6.06,7,7,0,0,1,.54,4.69S.48,4.52.4,4.31L.24,3.88c0-.08-.07-.21-.12-.37A3.24,3.24,0,0,1,0,3.06a2.73,2.73,0,0,1,0-.41A2.94,2.94,0,0,1,.4,1.2a2.1,2.1,0,0,1,.83-1A2.62,2.62,0,0,1,1.76.08,2.78,2.78,0,0,1,2.31,0l.17,0c.09,0,.23.23.41.6.06.1.14.24.23.42s.19.35.28.49.16.29.24.42l.14.2a2.3,2.3,0,0,1,.16.27A.49.49,0,0,1,4,2.65.71.71,0,0,1,3.78,3a3.35,3.35,0,0,1-.49.43c-.17.13-.33.27-.48.41a.6.6,0,0,0-.22.36.67.67,0,0,0,0,.18l.07.16a1.75,1.75,0,0,0,.11.18l.09.15A7.92,7.92,0,0,0,4.25,6.75,8.38,8.38,0,0,0,6.08,8.11l.15.09.19.11.16.06a.45.45,0,0,0,.17,0,.55.55,0,0,0,.36-.22,4,4,0,0,0,.42-.49A3.89,3.89,0,0,1,8,7.22.6.6,0,0,1,8.35,7a.59.59,0,0,1,.22,0l.28.17L9,7.36l.42.24.5.27.42.24c.36.18.56.32.59.41a.35.35,0,0,1,0,.16Z"/></g></g></svg>
