<svg xmlns="http://www.w3.org/2000/svg" viewBox="0 0 13 13"><title>search</title><g id="Layer_2" data-name="Layer 2"><g id="Layer_1-2" data-name="Layer 1"><path d="M9,5.5A3.35,3.35,0,0,0,8,3,3.33,3.33,0,0,0,5.5,2,3.38,3.38,0,0,0,3,3,3.35,3.35,0,0,0,2,5.5,3.37,3.37,0,0,0,3,8,3.37,3.37,0,0,0,5.5,9,3.36,3.36,0,0,0,8,8,3.37,3.37,0,0,0,9,5.5ZM13,12a1,1,0,0,1-1,1,1,1,0,0,1-.7-.29L8.62,10A5.32,5.32,0,0,1,5.5,11a5.42,5.42,0,0,1-2.14-.43A5.44,5.44,0,0,1,.43,7.64,5.38,5.38,0,0,1,0,5.5,5.42,5.42,0,0,1,.43,3.36,5.53,5.53,0,0,1,3.36.43,5.42,5.42,0,0,1,5.5,0,5.38,5.38,0,0,1,7.64.43a5.44,5.44,0,0,1,2.93,2.93A5.42,5.42,0,0,1,11,5.5a5.32,5.32,0,0,1-1,3.12l2.68,2.68A.93.93,0,0,1,13,12Z"/></g></g></svg>