<svg xmlns="http://www.w3.org/2000/svg" viewBox="0 0 68 65"><defs><style>.cls-1{fill:#4cbaba;}</style></defs><title>service-icon-1</title><g id="Layer_2" data-name="Layer 2"><g id="Layer_1-2" data-name="Layer 1"><g id="Layer_2-2" data-name="Layer 2"><g id="Layer_1-2-2" data-name="Layer 1-2"><path id="service-icon-1" class="cls-1" d="M52.25,52.85h3.93a2.19,2.19,0,0,0,2.18-2.18h0V8.58a5.46,5.46,0,0,0-5.44-5.46H41V0H27.05V3.12h-12A5.44,5.44,0,0,0,9.64,8.58h0V50.66a2.19,2.19,0,0,0,2.17,2.19h3.94L0,65H10.12L22.46,52.85H45.54L57.88,65H68ZM45.54,46a3.34,3.34,0,1,1,3.34,3.35A3.35,3.35,0,0,1,45.54,46ZM19.36,49.31a3.35,3.35,0,1,1,3.33-3.37V46h0a3.35,3.35,0,0,1-3.34,3.35ZM16.15,32a1.09,1.09,0,0,1-1.09-1.09h0V9.76a1.09,1.09,0,0,1,1.09-1.09h35.7a1.09,1.09,0,0,1,1.09,1.09h0V30.91A1.09,1.09,0,0,1,51.85,32H16.15Z"/></g></g></g></g></svg>