<svg xmlns="http://www.w3.org/2000/svg" viewBox="0 0 46.99 67.99"><defs><style>.cls-1{fill:#4cbaba;}</style></defs><title>service-icon-3</title><g id="Layer_2" data-name="Layer 2"><g id="Layer_1-2" data-name="Layer 1"><g id="Layer_2-2" data-name="Layer 2"><g id="Layer_1-2-2" data-name="Layer 1-2"><path id="service-icon-3" class="cls-1" d="M25.11,44.83a1.4,1.4,0,0,0,1.41-1.39h0v-.65a1.4,1.4,0,0,0-1.4-1.4H1.52A1.4,1.4,0,0,0,.11,42.77h0v.65a1.4,1.4,0,0,0,1.4,1.4h23.6ZM39.92,16a24,24,0,0,0-7.68-5.14h0a2.11,2.11,0,0,0-2.58.79L28,14.15a5.26,5.26,0,0,0-1.3-.26h-.41a5.26,5.26,0,0,0-1.12.12l2.89-4.47L29,8.14a2.08,2.08,0,0,0-.62-2.87h0L20.6.32A2.13,2.13,0,0,0,17.67,1L4.25,21.71a2.08,2.08,0,0,0,.61,2.87h0l1.46.94-.66,1L5,27.59l-.41.65a2.07,2.07,0,0,0,.6,2.87h0l1.26.79a2.12,2.12,0,0,0,2.92-.63h0l.42-.65.66-1,.66-1,1.45.91a2,2,0,0,0,1.14.33,2.16,2.16,0,0,0,1.79-1L21,20.35a4.82,4.82,0,0,0,.55,1.42,5.37,5.37,0,0,0,9.75-4.4,17.84,17.84,0,0,1,4.07,3,17.52,17.52,0,0,1,.16,24.78h0l-.15.15A17.91,17.91,0,0,1,28,49.71a2.23,2.23,0,0,1-.63.09H20.5a2.1,2.1,0,0,1-2.12-2.08v0h0v-.47H8.26v9.45H39.31a5.11,5.11,0,0,0,2.46-8.93A23.76,23.76,0,0,0,39.92,16ZM26.3,21.11a1.91,1.91,0,0,1-.33-3.8h.33a1.92,1.92,0,0,1,.28,3.83H26.3ZM39.15,53.28a1.74,1.74,0,0,1-.75.16,1.79,1.79,0,0,1,0-3.58h0a1.61,1.61,0,0,1,.75.16,1.75,1.75,0,0,1,1.06,1.62A1.8,1.8,0,0,1,39.15,53.28ZM8.26,59.17A8.87,8.87,0,0,0,0,68H37a2.1,2.1,0,0,0,2.12-2.08v0h0V59.15H8.26Z"/></g></g></g></g></svg>