<svg xmlns="http://www.w3.org/2000/svg" viewBox="0 0 68 53"><defs><style>.cls-1{fill:#4cbaba;}</style></defs><title>service-icon-2</title><g id="Layer_2" data-name="Layer 2"><g id="Layer_1-2" data-name="Layer 1"><g id="Layer_2-2" data-name="Layer 2"><g id="Layer_1-2-2" data-name="Layer 1-2"><path id="service-icon-2" class="cls-1" d="M61.35,44.17H48.78V39.75h6.65a2.21,2.21,0,0,0,2.22-2.2h0V24.29a2.21,2.21,0,0,0-2.21-2.21H48.78V15.46A15.51,15.51,0,0,0,33.26,0H11.09A11.08,11.08,0,0,0,0,11V33.13A15.51,15.51,0,0,0,15.52,48.59H61.35a2.19,2.19,0,0,1,2.21,2.19h0a2.22,2.22,0,0,0,4.44,0A6.65,6.65,0,0,0,61.35,44.17ZM48.78,26.5h4.44v8.83H48.78ZM24.39,39.75A15.46,15.46,0,1,1,39.91,24.29,15.46,15.46,0,0,1,24.39,39.75Zm0-26.5a11,11,0,1,0,.09,0Z"/></g></g></g></g></svg>
